<?xml version="1.0" standalone="no"?>
<svg xmlns="http://www.w3.org/2000/svg" width="1024" height="1024" viewBox="0 0 1024 1024"><defs><clipPath id="clip-path-dot-color"><path d="M 63.085 344.255v 26.66h 15.5a 13.33 13.33, 0, 0, 0, 0 -26.66" transform="rotate(-90,77.5,357.585)"/><path d="M 63.085 373.085v 26.66h 15.5a 13.33 13.33, 0, 0, 0, 0 -26.66" transform="rotate(90,77.5,386.41499999999996)"/><circle cx="77.5" cy="449.5" r="13.33" transform="rotate(0,75.33,447.33)"/><path d="M 63.085 499.255v 26.66h 15.5a 13.33 13.33, 0, 0, 0, 0 -26.66" transform="rotate(-90,77.5,512.585)"/><rect x="64.17" y="527" width="26.66" height="31" transform="rotate(0,75.33,542.5)"/><rect x="64.17" y="558" width="26.66" height="31" transform="rotate(0,75.33,573.5)"/><rect x="64.17" y="589" width="26.66" height="31" transform="rotate(0,75.33,604.5)"/><rect x="64.17" y="620" width="26.66" height="31" transform="rotate(0,75.33,635.5)"/><rect x="64.17" y="651" width="26.66" height="31" transform="rotate(0,75.33,666.5)"/><path d="M 63.085 683.085v 26.66h 15.5a 13.33 13.33, 0, 0, 0, 0 -26.66" transform="rotate(90,77.5,696.4150000000001)"/><path d="M 94.08500000000001 313.255v 26.66h 15.5a 13.33 13.33, 0, 0, 0, 0 -26.66" transform="rotate(-90,108.5,326.585)"/><rect x="95.17" y="341" width="26.66" height="31" transform="rotate(0,106.33,356.5)"/><rect x="95.17" y="372" width="26.66" height="31" transform="rotate(0,106.33,387.5)"/><rect x="95.17" y="403" width="26.66" height="31" transform="rotate(0,106.33,418.5)"/><rect x="95.17" y="434" width="26.66" height="31" transform="rotate(0,106.33,449.5)"/><path d="M 94.08500000000001 466.085v 26.66h 15.5a 13.33 13.33, 0, 0, 0, 0 -26.66" transform="rotate(90,108.5,479.41499999999996)"/><path d="M 94.08500000000001 561.255v 26.66h 15.5a 13.33 13.33, 0, 0, 0, 0 -26.66" transform="rotate(-90,108.5,574.585)"/><path d="M 94.08500000000001 590.085v 26.66h 15.5a 13.33 13.33, 0, 0, 0, 0 -26.66" transform="rotate(90,108.5,603.4150000000001)"/><circle cx="108.5" cy="666.5" r="13.33" transform="rotate(0,106.33,664.33)"/><path d="M 125.08500000000001 406.255v 26.66h 15.5a 13.33 13.33, 0, 0, 0, 0 -26.66" transform="rotate(-90,139.5,419.585)"/><path d="M 125.08500000000001 435.085v 26.66h 15.5a 13.33 13.33, 0, 0, 0, 0 -26.66" transform="rotate(90,139.5,448.41499999999996)"/><circle cx="139.5" cy="511.5" r="13.33" transform="rotate(0,137.33,509.33)"/><circle cx="139.5" cy="697.5" r="13.33" transform="rotate(0,137.33,695.33)"/><path d="M 156.085 313.255v 26.66h 15.5a 13.33 13.33, 0, 0, 0, 0 -26.66" transform="rotate(-90,170.5,326.585)"/><path d="M 156.085 342.085v 26.66h 15.5a 13.33 13.33, 0, 0, 0, 0 -26.66" transform="rotate(90,170.5,355.41499999999996)"/><circle cx="170.5" cy="418.5" r="13.33" transform="rotate(0,168.33,416.33)"/><path d="M 156.085 561.255v 26.66h 15.5a 13.33 13.33, 0, 0, 0, 0 -26.66" transform="rotate(-90,170.5,574.585)"/><rect x="157.17" y="589" width="26.66" height="31" transform="rotate(0,168.33,604.5)"/><rect x="157.17" y="620" width="26.66" height="31" transform="rotate(0,168.33,635.5)"/><path d="M 156.085 652.085v 26.66h 15.5a 13.33 13.33, 0, 0, 0, 0 -26.66" transform="rotate(90,170.5,665.4150000000001)"/><path d="M 187.085 313.255v 26.66h 15.5a 13.33 13.33, 0, 0, 0, 0 -26.66" transform="rotate(-90,201.5,326.585)"/><path d="M 187.085 342.085v 26.66h 15.5a 13.33 13.33, 0, 0, 0, 0 -26.66" transform="rotate(90,201.5,355.41499999999996)"/><path d="M 187.085 406.255v 26.66h 15.5a 13.33 13.33, 0, 0, 0, 0 -26.66" transform="rotate(-90,201.5,419.585)"/><path d="M 187.085 435.085v 26.66h 15.5a 13.33 13.33, 0, 0, 0, 0 -26.66" transform="rotate(90,201.5,448.41499999999996)"/><circle cx="201.5" cy="511.5" r="13.33" transform="rotate(0,199.33,509.33)"/><circle cx="201.5" cy="573.5" r="13.33" transform="rotate(0,199.33,571.33)"/><path d="M 187.085 623.255v 26.66h 15.5a 13.33 13.33, 0, 0, 0, 0 -26.66" transform="rotate(-90,201.5,636.585)"/><path d="M 187.085 652.085v 26.66h 15.5a 13.33 13.33, 0, 0, 0, 0 -26.66" transform="rotate(90,201.5,665.4150000000001)"/><circle cx="232.5" cy="356.5" r="13.33" transform="rotate(0,230.33,354.33)"/><path d="M 218.085 530.255v 26.66h 15.5a 13.33 13.33, 0, 0, 0, 0 -26.66" transform="rotate(-90,232.5,543.585)"/><path d="M 218.085 559.085v 26.66h 15.5a 13.33 13.33, 0, 0, 0, 0 -26.66" transform="rotate(90,232.5,572.4150000000001)"/><circle cx="232.5" cy="697.5" r="13.33" transform="rotate(0,230.33,695.33)"/><circle cx="263.5" cy="325.5" r="13.33" transform="rotate(0,261.33,323.33)"/><circle cx="263.5" cy="387.5" r="13.33" transform="rotate(0,261.33,385.33)"/><circle cx="263.5" cy="449.5" r="13.33" transform="rotate(0,261.33,447.33)"/><circle cx="263.5" cy="511.5" r="13.33" transform="rotate(0,261.33,509.33)"/><circle cx="263.5" cy="573.5" r="13.33" transform="rotate(0,261.33,571.33)"/><circle cx="263.5" cy="635.5" r="13.33" transform="rotate(0,261.33,633.33)"/><circle cx="263.5" cy="697.5" r="13.33" transform="rotate(0,261.33,695.33)"/><circle cx="294.5" cy="325.5" r="13.33" transform="rotate(0,292.33,323.33)"/><path d="M 280.085 437.255v 26.66h 15.5a 13.33 13.33, 0, 0, 0, 0 -26.66" transform="rotate(-90,294.5,450.585)"/><rect x="281.17" y="465" width="26.66" height="31" transform="rotate(0,292.33,480.5)"/><path d="M 280.085 497.085v 26.66h 15.5a 13.33 13.33, 0, 0, 0, 0 -26.66" transform="rotate(90,294.5,510.41499999999996)"/><path d="M 280.085 592.255v 26.66h 15.5a 13.33 13.33, 0, 0, 0, 0 -26.66" transform="rotate(-90,294.5,605.585)"/><path d="M 280.085 621.085v 26.66h 15.5a 13.33 13.33, 0, 0, 0, 0 -26.66" transform="rotate(90,294.5,634.4150000000001)"/><circle cx="325.5" cy="108.5" r="13.33" transform="rotate(0,323.33,106.33)"/><path d="M 311.085 158.255v 26.66h 15.5a 13.33 13.33, 0, 0, 0, 0 -26.66" transform="rotate(-90,325.5,171.585)"/><rect x="312.17" y="186" width="26.66" height="31" transform="rotate(0,323.33,201.5)"/><rect x="312.17" y="217" width="26.66" height="31" transform="rotate(0,323.33,232.5)"/><path d="M 311.085 249.085v 26.66h 15.5a 13.33 13.33, 0, 0, 0, 0 -26.66" transform="rotate(90,325.5,262.415)"/><path d="M 311.085 313.255v 26.66h 15.5a 13.33 13.33, 0, 0, 0, 0 -26.66" transform="rotate(-90,325.5,326.585)"/><rect x="312.17" y="341" width="26.66" height="31" transform="rotate(0,323.33,356.5)"/><path d="M 311.085 373.085v 26.66h 15.5a 13.33 13.33, 0, 0, 0, 0 -26.66" transform="rotate(90,325.5,386.41499999999996)"/><path d="M 311.085 437.255v 26.66h 15.5a 13.33 13.33, 0, 0, 0, 0 -26.66" transform="rotate(-90,325.5,450.585)"/><path d="M 311.085 466.085v 26.66h 15.5a 13.33 13.33, 0, 0, 0, 0 -26.66" transform="rotate(90,325.5,479.41499999999996)"/><path d="M 311.085 530.255v 26.66h 15.5a 13.33 13.33, 0, 0, 0, 0 -26.66" transform="rotate(-90,325.5,543.585)"/><path d="M 311.085 559.085v 26.66h 15.5a 13.33 13.33, 0, 0, 0, 0 -26.66" transform="rotate(90,325.5,572.4150000000001)"/><circle cx="325.5" cy="666.5" r="13.33" transform="rotate(0,323.33,664.33)"/><path d="M 311.085 716.255v 26.66h 15.5a 13.33 13.33, 0, 0, 0, 0 -26.66" transform="rotate(-90,325.5,729.585)"/><path d="M 311.085 745.085v 26.66h 15.5a 13.33 13.33, 0, 0, 0, 0 -26.66" transform="rotate(90,325.5,758.4150000000001)"/><path d="M 311.085 809.255v 26.66h 15.5a 13.33 13.33, 0, 0, 0, 0 -26.66" transform="rotate(-90,325.5,822.585)"/><path d="M 311.085 838.085v 26.66h 15.5a 13.33 13.33, 0, 0, 0, 0 -26.66" transform="rotate(90,325.5,851.4150000000001)"/><circle cx="325.5" cy="914.5" r="13.33" transform="rotate(0,323.33,912.33)"/><path d="M 342.085 65.255v 26.66h 15.5a 13.33 13.33, 0, 0, 0, 0 -26.66" transform="rotate(-90,356.5,78.585)"/><rect x="343.17" y="93" width="26.66" height="31" transform="rotate(0,354.33,108.5)"/><rect x="343.17" y="124" width="26.66" height="31" transform="rotate(0,354.33,139.5)"/><rect x="343.17" y="155" width="26.66" height="31" transform="rotate(0,354.33,170.5)"/><path d="M 342.085 187.085v 26.66h 15.5a 13.33 13.33, 0, 0, 0, 0 -26.66" transform="rotate(90,356.5,200.41500000000002)"/><path d="M 342.085 282.255v 26.66h 15.5a 13.33 13.33, 0, 0, 0, 0 -26.66" transform="rotate(-90,356.5,295.585)"/><path d="M 342.085 311.085v 26.66h 15.5a 13.33 13.33, 0, 0, 0, 0 -26.66" transform="rotate(90,356.5,324.41499999999996)"/><circle cx="356.5" cy="449.5" r="13.33" transform="rotate(0,354.33,447.33)"/><path d="M 342.085 561.255v 26.66h 15.5a 13.33 13.33, 0, 0, 0, 0 -26.66" transform="rotate(-90,356.5,574.585)"/><rect x="343.17" y="589" width="26.66" height="31" transform="rotate(0,354.33,604.5)"/><rect x="343.17" y="620" width="26.66" height="31" transform="rotate(0,354.33,635.5)"/><rect x="343.17" y="651" width="26.66" height="31" transform="rotate(0,354.33,666.5)"/><path d="M 342.085 683.085v 26.66h 15.5a 13.33 13.33, 0, 0, 0, 0 -26.66" transform="rotate(90,356.5,696.4150000000001)"/><path d="M 342.085 809.255v 26.66h 15.5a 13.33 13.33, 0, 0, 0, 0 -26.66" transform="rotate(-90,356.5,822.585)"/><rect x="343.17" y="837" width="26.66" height="31" transform="rotate(0,354.33,852.5)"/><rect x="343.17" y="868" width="26.66" height="31" transform="rotate(0,354.33,883.5)"/><path d="M 342.085 900.085v 26.66h 15.5a 13.33 13.33, 0, 0, 0, 0 -26.66" transform="rotate(90,356.5,913.4150000000001)"/><circle cx="387.5" cy="108.5" r="13.33" transform="rotate(0,385.33,106.33)"/><path d="M 373.085 220.255v 26.66h 15.5a 13.33 13.33, 0, 0, 0, 0 -26.66" transform="rotate(-90,387.5,233.585)"/><rect x="374.17" y="248" width="26.66" height="31" transform="rotate(0,385.33,263.5)"/><rect x="374.17" y="279" width="26.66" height="31" transform="rotate(0,385.33,294.5)"/><path d="M 373.085 311.085v 26.66h 15.5a 13.33 13.33, 0, 0, 0, 0 -26.66" transform="rotate(90,387.5,324.41499999999996)"/><path d="M 373.085 685.255v 26.66h 15.5a 13.33 13.33, 0, 0, 0, 0 -26.66" transform="rotate(-90,387.5,698.585)"/><rect x="374.17" y="713" width="26.66" height="31" transform="rotate(0,385.33,728.5)"/><path d="M 373.085 745.085v 26.66h 15.5a 13.33 13.33, 0, 0, 0, 0 -26.66" transform="rotate(90,387.5,758.4150000000001)"/><circle cx="387.5" cy="821.5" r="13.33" transform="rotate(0,385.33,819.33)"/><circle cx="387.5" cy="883.5" r="13.33" transform="rotate(0,385.33,881.33)"/><circle cx="418.5" cy="108.5" r="13.33" transform="rotate(0,416.33,106.33)"/><circle cx="418.5" cy="170.5" r="13.33" transform="rotate(0,416.33,168.33)"/><circle cx="418.5" cy="294.5" r="13.33" transform="rotate(0,416.33,292.33)"/><circle cx="418.5" cy="356.5" r="13.33" transform="rotate(0,416.33,354.33)"/><path d="M 404.085 654.255v 26.66h 15.5a 13.33 13.33, 0, 0, 0, 0 -26.66" transform="rotate(-90,418.5,667.585)"/><path d="M 404.085 683.085v 26.66h 15.5a 13.33 13.33, 0, 0, 0, 0 -26.66" transform="rotate(90,418.5,696.4150000000001)"/><path d="M 404.085 809.255v 26.66h 15.5a 13.33 13.33, 0, 0, 0, 0 -26.66" transform="rotate(-90,418.5,822.585)"/><path d="M 404.085 838.085v 26.66h 15.5a 13.33 13.33, 0, 0, 0, 0 -26.66" transform="rotate(90,418.5,851.4150000000001)"/><circle cx="418.5" cy="945.5" r="13.33" transform="rotate(0,416.33,943.33)"/><circle cx="449.5" cy="108.5" r="13.33" transform="rotate(0,447.33,106.33)"/><path d="M 435.085 220.255v 26.66h 15.5a 13.33 13.33, 0, 0, 0, 0 -26.66" transform="rotate(-90,449.5,233.585)"/><rect x="436.17" y="248" width="26.66" height="31" transform="rotate(0,447.33,263.5)"/><path d="M 435.085 280.085v 26.66h 15.5a 13.33 13.33, 0, 0, 0, 0 -26.66" transform="rotate(90,449.5,293.41499999999996)"/><path d="M 435.085 716.255v 26.66h 15.5a 13.33 13.33, 0, 0, 0, 0 -26.66" transform="rotate(-90,449.5,729.585)"/><path d="M 435.085 745.085v 26.66h 15.5a 13.33 13.33, 0, 0, 0, 0 -26.66" transform="rotate(90,449.5,758.4150000000001)"/><circle cx="449.5" cy="914.5" r="13.33" transform="rotate(0,447.33,912.33)"/><path d="M 466.085 65.255v 26.66h 15.5a 13.33 13.33, 0, 0, 0, 0 -26.66" transform="rotate(-90,480.5,78.585)"/><path d="M 466.085 94.08500000000001v 26.66h 15.5a 13.33 13.33, 0, 0, 0, 0 -26.66" transform="rotate(90,480.5,107.415)"/><circle cx="480.5" cy="201.5" r="13.33" transform="rotate(0,478.33,199.33)"/><circle cx="480.5" cy="759.5" r="13.33" transform="rotate(0,478.33,757.33)"/><circle cx="480.5" cy="821.5" r="13.33" transform="rotate(0,478.33,819.33)"/><path d="M 466.085 871.255v 26.66h 15.5a 13.33 13.33, 0, 0, 0, 0 -26.66" transform="rotate(-90,480.5,884.585)"/><rect x="467.17" y="899" width="26.66" height="31" transform="rotate(0,478.33,914.5)"/><path d="M 466.085 931.085v 26.66h 15.5a 13.33 13.33, 0, 0, 0, 0 -26.66" transform="rotate(90,480.5,944.4150000000001)"/><circle cx="511.5" cy="108.5" r="13.33" transform="rotate(0,509.33,106.33)"/><circle cx="511.5" cy="201.5" r="13.33" transform="rotate(0,509.33,199.33)"/><path d="M 497.085 251.255v 26.66h 15.5a 13.33 13.33, 0, 0, 0, 0 -26.66" transform="rotate(-90,511.5,264.585)"/><path d="M 497.085 280.085v 26.66h 15.5a 13.33 13.33, 0, 0, 0, 0 -26.66" transform="rotate(90,511.5,293.41499999999996)"/><path d="M 497.085 654.255v 26.66h 15.5a 13.33 13.33, 0, 0, 0, 0 -26.66" transform="rotate(-90,511.5,667.585)"/><path d="M 497.085 683.085v 26.66h 15.5a 13.33 13.33, 0, 0, 0, 0 -26.66" transform="rotate(90,511.5,696.4150000000001)"/><circle cx="511.5" cy="790.5" r="13.33" transform="rotate(0,509.33,788.33)"/><circle cx="511.5" cy="852.5" r="13.33" transform="rotate(0,509.33,850.33)"/><path d="M 497.085 902.255v 26.66h 15.5a 13.33 13.33, 0, 0, 0, 0 -26.66" transform="rotate(-90,511.5,915.585)"/><path d="M 497.085 931.085v 26.66h 15.5a 13.33 13.33, 0, 0, 0, 0 -26.66" transform="rotate(90,511.5,944.4150000000001)"/><circle cx="542.5" cy="170.5" r="13.33" transform="rotate(0,540.33,168.33)"/><circle cx="542.5" cy="232.5" r="13.33" transform="rotate(0,540.33,230.33)"/><path d="M 528.085 313.255v 26.66h 15.5a 13.33 13.33, 0, 0, 0, 0 -26.66" transform="rotate(-90,542.5,326.585)"/><path d="M 528.085 342.085v 26.66h 15.5a 13.33 13.33, 0, 0, 0, 0 -26.66" transform="rotate(90,542.5,355.41499999999996)"/><circle cx="542.5" cy="666.5" r="13.33" transform="rotate(0,540.33,664.33)"/><path d="M 528.085 809.255v 26.66h 15.5a 13.33 13.33, 0, 0, 0, 0 -26.66" transform="rotate(-90,542.5,822.585)"/><rect x="529.17" y="837" width="26.66" height="31" transform="rotate(0,540.33,852.5)"/><path d="M 528.085 869.085v 26.66h 15.5a 13.33 13.33, 0, 0, 0, 0 -26.66" transform="rotate(90,542.5,882.4150000000001)"/><circle cx="542.5" cy="945.5" r="13.33" transform="rotate(0,540.33,943.33)"/><path d="M 559.085 96.255v 26.66h 15.5a 13.33 13.33, 0, 0, 0, 0 -26.66" transform="rotate(-90,573.5,109.585)"/><path d="M 559.085 125.08500000000001v 26.66h 15.5a 13.33 13.33, 0, 0, 0, 0 -26.66" transform="rotate(90,573.5,138.41500000000002)"/><circle cx="573.5" cy="263.5" r="13.33" transform="rotate(0,571.33,261.33)"/><circle cx="573.5" cy="325.5" r="13.33" transform="rotate(0,571.33,323.33)"/><circle cx="573.5" cy="697.5" r="13.33" transform="rotate(0,571.33,695.33)"/><circle cx="573.5" cy="790.5" r="13.33" transform="rotate(0,571.33,788.33)"/><circle cx="573.5" cy="852.5" r="13.33" transform="rotate(0,571.33,850.33)"/><circle cx="604.5" cy="77.5" r="13.33" transform="rotate(0,602.33,75.33)"/><circle cx="604.5" cy="170.5" r="13.33" transform="rotate(0,602.33,168.33)"/><circle cx="604.5" cy="232.5" r="13.33" transform="rotate(0,602.33,230.33)"/><circle cx="604.5" cy="294.5" r="13.33" transform="rotate(0,602.33,292.33)"/><circle cx="604.5" cy="356.5" r="13.33" transform="rotate(0,602.33,354.33)"/><path d="M 590.085 654.255v 26.66h 15.5a 13.33 13.33, 0, 0, 0, 0 -26.66" transform="rotate(-90,604.5,667.585)"/><path d="M 590.085 683.085v 26.66h 15.5a 13.33 13.33, 0, 0, 0, 0 -26.66" transform="rotate(90,604.5,696.4150000000001)"/><circle cx="604.5" cy="821.5" r="13.33" transform="rotate(0,602.33,819.33)"/><path d="M 621.085 65.255v 26.66h 15.5a 13.33 13.33, 0, 0, 0, 0 -26.66" transform="rotate(-90,635.5,78.585)"/><path d="M 621.085 94.08500000000001v 26.66h 15.5a 13.33 13.33, 0, 0, 0, 0 -26.66" transform="rotate(90,635.5,107.415)"/><path d="M 621.085 189.255v 26.66h 15.5a 13.33 13.33, 0, 0, 0, 0 -26.66" transform="rotate(-90,635.5,202.585)"/><rect x="622.17" y="217" width="26.66" height="31" transform="rotate(0,633.33,232.5)"/><rect x="622.17" y="248" width="26.66" height="31" transform="rotate(0,633.33,263.5)"/><path d="M 621.085 280.085v 26.66h 15.5a 13.33 13.33, 0, 0, 0, 0 -26.66" transform="rotate(90,635.5,293.41499999999996)"/><circle cx="635.5" cy="356.5" r="13.33" transform="rotate(0,633.33,354.33)"/><circle cx="635.5" cy="666.5" r="13.33" transform="rotate(0,633.33,664.33)"/><circle cx="635.5" cy="790.5" r="13.33" transform="rotate(0,633.33,788.33)"/><circle cx="635.5" cy="945.5" r="13.33" transform="rotate(0,633.33,943.33)"/><path d="M 652.085 65.255v 26.66h 15.5a 13.33 13.33, 0, 0, 0, 0 -26.66" transform="rotate(-90,666.5,78.585)"/><path d="M 652.085 94.08500000000001v 26.66h 15.5a 13.33 13.33, 0, 0, 0, 0 -26.66" transform="rotate(90,666.5,107.415)"/><circle cx="666.5" cy="201.5" r="13.33" transform="rotate(0,664.33,199.33)"/><path d="M 652.085 282.255v 26.66h 15.5a 13.33 13.33, 0, 0, 0, 0 -26.66" transform="rotate(-90,666.5,295.585)"/><path d="M 652.085 311.085v 26.66h 15.5a 13.33 13.33, 0, 0, 0, 0 -26.66" transform="rotate(90,666.5,324.41499999999996)"/><path d="M 652.085 499.255v 26.66h 15.5a 13.33 13.33, 0, 0, 0, 0 -26.66" transform="rotate(-90,666.5,512.585)"/><rect x="653.17" y="527" width="26.66" height="31" transform="rotate(0,664.33,542.5)"/><path d="M 652.085 559.085v 26.66h 15.5a 13.33 13.33, 0, 0, 0, 0 -26.66" transform="rotate(90,666.5,572.4150000000001)"/><path d="M 652.085 623.255v 26.66h 15.5a 13.33 13.33, 0, 0, 0, 0 -26.66" transform="rotate(-90,666.5,636.585)"/><path d="M 652.085 652.085v 26.66h 15.5a 13.33 13.33, 0, 0, 0, 0 -26.66" transform="rotate(90,666.5,665.4150000000001)"/><path d="M 652.085 716.255v 26.66h 15.5a 13.33 13.33, 0, 0, 0, 0 -26.66" transform="rotate(-90,666.5,729.585)"/><path d="M 652.085 745.085v 26.66h 15.5a 13.33 13.33, 0, 0, 0, 0 -26.66" transform="rotate(90,666.5,758.4150000000001)"/><circle cx="666.5" cy="821.5" r="13.33" transform="rotate(0,664.33,819.33)"/><path d="M 652.085 871.255v 26.66h 15.5a 13.33 13.33, 0, 0, 0, 0 -26.66" transform="rotate(-90,666.5,884.585)"/><rect x="653.17" y="899" width="26.66" height="31" transform="rotate(0,664.33,914.5)"/><path d="M 652.085 931.085v 26.66h 15.5a 13.33 13.33, 0, 0, 0, 0 -26.66" transform="rotate(90,666.5,944.4150000000001)"/><path d="M 683.085 65.255v 26.66h 15.5a 13.33 13.33, 0, 0, 0, 0 -26.66" transform="rotate(-90,697.5,78.585)"/><rect x="684.17" y="93" width="26.66" height="31" transform="rotate(0,695.33,108.5)"/><rect x="684.17" y="124" width="26.66" height="31" transform="rotate(0,695.33,139.5)"/><rect x="684.17" y="155" width="26.66" height="31" transform="rotate(0,695.33,170.5)"/><rect x="684.17" y="186" width="26.66" height="31" transform="rotate(0,695.33,201.5)"/><rect x="684.17" y="217" width="26.66" height="31" transform="rotate(0,695.33,232.5)"/><rect x="684.17" y="248" width="26.66" height="31" transform="rotate(0,695.33,263.5)"/><rect x="684.17" y="279" width="26.66" height="31" transform="rotate(0,695.33,294.5)"/><rect x="684.17" y="310" width="26.66" height="31" transform="rotate(0,695.33,325.5)"/><rect x="684.17" y="341" width="26.66" height="31" transform="rotate(0,695.33,356.5)"/><path d="M 683.085 373.085v 26.66h 15.5a 13.33 13.33, 0, 0, 0, 0 -26.66" transform="rotate(90,697.5,386.41499999999996)"/><circle cx="697.5" cy="449.5" r="13.33" transform="rotate(0,695.33,447.33)"/><circle cx="697.5" cy="511.5" r="13.33" transform="rotate(0,695.33,509.33)"/><path d="M 683.085 561.255v 26.66h 15.5a 13.33 13.33, 0, 0, 0, 0 -26.66" transform="rotate(-90,697.5,574.585)"/><path d="M 683.085 590.085v 26.66h 15.5a 13.33 13.33, 0, 0, 0, 0 -26.66" transform="rotate(90,697.5,603.4150000000001)"/><path d="M 683.085 654.255v 26.66h 15.5a 13.33 13.33, 0, 0, 0, 0 -26.66" transform="rotate(-90,697.5,667.585)"/><rect x="684.17" y="682" width="26.66" height="31" transform="rotate(0,695.33,697.5)"/><rect x="684.17" y="713" width="26.66" height="31" transform="rotate(0,695.33,728.5)"/><rect x="684.17" y="744" width="26.66" height="31" transform="rotate(0,695.33,759.5)"/><rect x="684.17" y="775" width="26.66" height="31" transform="rotate(0,695.33,790.5)"/><path d="M 683.085 807.085v 26.66h 15.5a 13.33 13.33, 0, 0, 0, 0 -26.66" transform="rotate(90,697.5,820.4150000000001)"/><path d="M 683.085 871.255v 26.66h 15.5a 13.33 13.33, 0, 0, 0, 0 -26.66" transform="rotate(-90,697.5,884.585)"/><path d="M 683.085 900.085v 26.66h 15.5a 13.33 13.33, 0, 0, 0, 0 -26.66" transform="rotate(90,697.5,913.4150000000001)"/><path d="M 714.085 313.255v 26.66h 15.5a 13.33 13.33, 0, 0, 0, 0 -26.66" transform="rotate(-90,728.5,326.585)"/><rect x="715.17" y="341" width="26.66" height="31" transform="rotate(0,726.33,356.5)"/><path d="M 714.085 373.085v 26.66h 15.5a 13.33 13.33, 0, 0, 0, 0 -26.66" transform="rotate(90,728.5,386.41499999999996)"/><circle cx="728.5" cy="542.5" r="13.33" transform="rotate(0,726.33,540.33)"/><path d="M 714.085 592.255v 26.66h 15.5a 13.33 13.33, 0, 0, 0, 0 -26.66" transform="rotate(-90,728.5,605.585)"/><rect x="715.17" y="620" width="26.66" height="31" transform="rotate(0,726.33,635.5)"/><rect x="715.17" y="651" width="26.66" height="31" transform="rotate(0,726.33,666.5)"/><path d="M 714.085 683.085v 26.66h 15.5a 13.33 13.33, 0, 0, 0, 0 -26.66" transform="rotate(90,728.5,696.4150000000001)"/><path d="M 714.085 809.255v 26.66h 15.5a 13.33 13.33, 0, 0, 0, 0 -26.66" transform="rotate(-90,728.5,822.585)"/><rect x="715.17" y="837" width="26.66" height="31" transform="rotate(0,726.33,852.5)"/><rect x="715.17" y="868" width="26.66" height="31" transform="rotate(0,726.33,883.5)"/><path d="M 714.085 900.085v 26.66h 15.5a 13.33 13.33, 0, 0, 0, 0 -26.66" transform="rotate(90,728.5,913.4150000000001)"/><path d="M 745.085 375.255v 26.66h 15.5a 13.33 13.33, 0, 0, 0, 0 -26.66" transform="rotate(-90,759.5,388.585)"/><rect x="746.17" y="403" width="26.66" height="31" transform="rotate(0,757.33,418.5)"/><rect x="746.17" y="434" width="26.66" height="31" transform="rotate(0,757.33,449.5)"/><path d="M 745.085 466.085v 26.66h 15.5a 13.33 13.33, 0, 0, 0, 0 -26.66" transform="rotate(90,759.5,479.41499999999996)"/><path d="M 745.085 530.255v 26.66h 15.5a 13.33 13.33, 0, 0, 0, 0 -26.66" transform="rotate(-90,759.5,543.585)"/><path d="M 745.085 559.085v 26.66h 15.5a 13.33 13.33, 0, 0, 0, 0 -26.66" transform="rotate(90,759.5,572.4150000000001)"/><path d="M 745.085 654.255v 26.66h 15.5a 13.33 13.33, 0, 0, 0, 0 -26.66" transform="rotate(-90,759.5,667.585)"/><path d="M 745.085 683.085v 26.66h 15.5a 13.33 13.33, 0, 0, 0, 0 -26.66" transform="rotate(90,759.5,696.4150000000001)"/><circle cx="759.5" cy="759.5" r="13.33" transform="rotate(0,757.33,757.33)"/><circle cx="759.5" cy="821.5" r="13.33" transform="rotate(0,757.33,819.33)"/><circle cx="759.5" cy="883.5" r="13.33" transform="rotate(0,757.33,881.33)"/><path d="M 776.085 313.255v 26.66h 15.5a 13.33 13.33, 0, 0, 0, 0 -26.66" transform="rotate(-90,790.5,326.585)"/><path d="M 776.085 342.085v 26.66h 15.5a 13.33 13.33, 0, 0, 0, 0 -26.66" transform="rotate(90,790.5,355.41499999999996)"/><circle cx="790.5" cy="480.5" r="13.33" transform="rotate(0,788.33,478.33)"/><circle cx="790.5" cy="542.5" r="13.33" transform="rotate(0,788.33,540.33)"/><path d="M 776.085 623.255v 26.66h 15.5a 13.33 13.33, 0, 0, 0, 0 -26.66" transform="rotate(-90,790.5,636.585)"/><rect x="777.17" y="651" width="26.66" height="31" transform="rotate(0,788.33,666.5)"/><path d="M 776.085 683.085v 26.66h 15.5a 13.33 13.33, 0, 0, 0, 0 -26.66" transform="rotate(90,790.5,696.4150000000001)"/><path d="M 776.085 809.255v 26.66h 15.5a 13.33 13.33, 0, 0, 0, 0 -26.66" transform="rotate(-90,790.5,822.585)"/><path d="M 776.085 838.085v 26.66h 15.5a 13.33 13.33, 0, 0, 0, 0 -26.66" transform="rotate(90,790.5,851.4150000000001)"/><path d="M 776.085 902.255v 26.66h 15.5a 13.33 13.33, 0, 0, 0, 0 -26.66" transform="rotate(-90,790.5,915.585)"/><path d="M 776.085 931.085v 26.66h 15.5a 13.33 13.33, 0, 0, 0, 0 -26.66" transform="rotate(90,790.5,944.4150000000001)"/><circle cx="821.5" cy="325.5" r="13.33" transform="rotate(0,819.33,323.33)"/><circle cx="821.5" cy="418.5" r="13.33" transform="rotate(0,819.33,416.33)"/><path d="M 807.085 499.255v 26.66h 15.5a 13.33 13.33, 0, 0, 0, 0 -26.66" transform="rotate(-90,821.5,512.585)"/><path d="M 807.085 528.085v 26.66h 15.5a 13.33 13.33, 0, 0, 0, 0 -26.66" transform="rotate(90,821.5,541.4150000000001)"/><circle cx="821.5" cy="604.5" r="13.33" transform="rotate(0,819.33,602.33)"/><path d="M 807.085 654.255v 26.66h 15.5a 13.33 13.33, 0, 0, 0, 0 -26.66" transform="rotate(-90,821.5,667.585)"/><rect x="808.17" y="682" width="26.66" height="31" transform="rotate(0,819.33,697.5)"/><rect x="808.17" y="713" width="26.66" height="31" transform="rotate(0,819.33,728.5)"/><rect x="808.17" y="744" width="26.66" height="31" transform="rotate(0,819.33,759.5)"/><rect x="808.17" y="775" width="26.66" height="31" transform="rotate(0,819.33,790.5)"/><path d="M 807.085 807.085v 26.66h 15.5a 13.33 13.33, 0, 0, 0, 0 -26.66" transform="rotate(90,821.5,820.4150000000001)"/><circle cx="821.5" cy="914.5" r="13.33" transform="rotate(0,819.33,912.33)"/><path d="M 838.085 313.255v 26.66h 15.5a 13.33 13.33, 0, 0, 0, 0 -26.66" transform="rotate(-90,852.5,326.585)"/><rect x="839.17" y="341" width="26.66" height="31" transform="rotate(0,850.33,356.5)"/><path d="M 838.085 373.085v 26.66h 15.5a 13.33 13.33, 0, 0, 0, 0 -26.66" transform="rotate(90,852.5,386.41499999999996)"/><circle cx="852.5" cy="449.5" r="13.33" transform="rotate(0,850.33,447.33)"/><circle cx="852.5" cy="511.5" r="13.33" transform="rotate(0,850.33,509.33)"/><circle cx="852.5" cy="635.5" r="13.33" transform="rotate(0,850.33,633.33)"/><circle cx="852.5" cy="790.5" r="13.33" transform="rotate(0,850.33,788.33)"/><path d="M 838.085 871.255v 26.66h 15.5a 13.33 13.33, 0, 0, 0, 0 -26.66" transform="rotate(-90,852.5,884.585)"/><path d="M 838.085 900.085v 26.66h 15.5a 13.33 13.33, 0, 0, 0, 0 -26.66" transform="rotate(90,852.5,913.4150000000001)"/><path d="M 869.085 375.255v 26.66h 15.5a 13.33 13.33, 0, 0, 0, 0 -26.66" transform="rotate(-90,883.5,388.585)"/><path d="M 869.085 404.085v 26.66h 15.5a 13.33 13.33, 0, 0, 0, 0 -26.66" transform="rotate(90,883.5,417.41499999999996)"/><path d="M 869.085 499.255v 26.66h 15.5a 13.33 13.33, 0, 0, 0, 0 -26.66" transform="rotate(-90,883.5,512.585)"/><path d="M 869.085 528.085v 26.66h 15.5a 13.33 13.33, 0, 0, 0, 0 -26.66" transform="rotate(90,883.5,541.4150000000001)"/><path d="M 869.085 685.255v 26.66h 15.5a 13.33 13.33, 0, 0, 0, 0 -26.66" transform="rotate(-90,883.5,698.585)"/><path d="M 869.085 714.085v 26.66h 15.5a 13.33 13.33, 0, 0, 0, 0 -26.66" transform="rotate(90,883.5,727.4150000000001)"/><path d="M 869.085 778.255v 26.66h 15.5a 13.33 13.33, 0, 0, 0, 0 -26.66" transform="rotate(-90,883.5,791.585)"/><path d="M 869.085 807.085v 26.66h 15.5a 13.33 13.33, 0, 0, 0, 0 -26.66" transform="rotate(90,883.5,820.4150000000001)"/><path d="M 869.085 902.255v 26.66h 15.5a 13.33 13.33, 0, 0, 0, 0 -26.66" transform="rotate(-90,883.5,915.585)"/><path d="M 869.085 931.085v 26.66h 15.5a 13.33 13.33, 0, 0, 0, 0 -26.66" transform="rotate(90,883.5,944.4150000000001)"/><path d="M 900.085 313.255v 26.66h 15.5a 13.33 13.33, 0, 0, 0, 0 -26.66" transform="rotate(-90,914.5,326.585)"/><rect x="901.17" y="341" width="26.66" height="31" transform="rotate(0,912.33,356.5)"/><rect x="901.17" y="372" width="26.66" height="31" transform="rotate(0,912.33,387.5)"/><rect x="901.17" y="403" width="26.66" height="31" transform="rotate(0,912.33,418.5)"/><path d="M 900.085 435.085v 26.66h 15.5a 13.33 13.33, 0, 0, 0, 0 -26.66" transform="rotate(90,914.5,448.41499999999996)"/><circle cx="914.5" cy="511.5" r="13.33" transform="rotate(0,912.33,509.33)"/><circle cx="914.5" cy="573.5" r="13.33" transform="rotate(0,912.33,571.33)"/><circle cx="914.5" cy="666.5" r="13.33" transform="rotate(0,912.33,664.33)"/><path d="M 900.085 716.255v 26.66h 15.5a 13.33 13.33, 0, 0, 0, 0 -26.66" transform="rotate(-90,914.5,729.585)"/><path d="M 900.085 745.085v 26.66h 15.5a 13.33 13.33, 0, 0, 0, 0 -26.66" transform="rotate(90,914.5,758.4150000000001)"/><path d="M 900.085 809.255v 26.66h 15.5a 13.33 13.33, 0, 0, 0, 0 -26.66" transform="rotate(-90,914.5,822.585)"/><rect x="901.17" y="837" width="26.66" height="31" transform="rotate(0,912.33,852.5)"/><path d="M 900.085 869.085v 26.66h 15.5a 13.33 13.33, 0, 0, 0, 0 -26.66" transform="rotate(90,914.5,882.4150000000001)"/><circle cx="914.5" cy="945.5" r="13.33" transform="rotate(0,912.33,943.33)"/><path d="M 931.085 437.255v 26.66h 15.5a 13.33 13.33, 0, 0, 0, 0 -26.66" transform="rotate(-90,945.5,450.585)"/><rect x="932.17" y="465" width="26.66" height="31" transform="rotate(0,943.33,480.5)"/><rect x="932.17" y="496" width="26.66" height="31" transform="rotate(0,943.33,511.5)"/><path d="M 931.085 528.085v 26.66h 15.5a 13.33 13.33, 0, 0, 0, 0 -26.66" transform="rotate(90,945.5,541.4150000000001)"/><path d="M 931.085 654.255v 26.66h 15.5a 13.33 13.33, 0, 0, 0, 0 -26.66" transform="rotate(-90,945.5,667.585)"/><rect x="932.17" y="682" width="26.66" height="31" transform="rotate(0,943.33,697.5)"/><rect x="932.17" y="713" width="26.66" height="31" transform="rotate(0,943.33,728.5)"/><rect x="932.17" y="744" width="26.66" height="31" transform="rotate(0,943.33,759.5)"/><rect x="932.17" y="775" width="26.66" height="31" transform="rotate(0,943.33,790.5)"/><rect x="932.17" y="806" width="26.66" height="31" transform="rotate(0,943.33,821.5)"/><path d="M 931.085 838.085v 26.66h 15.5a 13.33 13.33, 0, 0, 0, 0 -26.66" transform="rotate(90,945.5,851.4150000000001)"/></clipPath><clipPath id="clip-path-corners-square-color-0-0"><path d="m 62 62 m 69.802 217 h 147.198 v -147.198 c 0 -38.517 -31.284 -69.802 -69.802 -69.802 h -77.397 c -38.517 0 -69.802 31.284 -69.802 69.802 v 77.397 c 0 38.518 31.284 69.802 69.802 69.802 z m -42.677 -147.198 c 0 -23.508 19.168 -42.677 42.677 -42.677 h 77.397 c 23.508 0 42.677 19.168 42.677 42.677 v 120.073 h -120.073 c -23.508 0 -42.677 -19.168 -42.677 -42.677 v -77.397 z"/></clipPath><clipPath id="clip-path-corners-dot-color-0-0"><path d="m 124 124 m 48.36 79.382 l 21.456 9.898 c 3.122 1.461 6.709 -1.129 6.244 -4.584 l -2.79 -23.449 c -0.133 -1.262 0.266 -2.591 1.129 -3.521 l 16.009 -17.338 c 2.325 -2.524 0.996 -6.709 -2.391 -7.374 l -23.184 -4.65 c -1.262 -0.266 -2.391 -1.063 -2.989 -2.192 l -11.559 -20.593 c -1.727 -3.056 -6.045 -3.056 -7.772 0 l -11.559 20.593 c -0.664 1.129 -1.727 1.926 -2.989 2.192 l -23.184 4.65 c -3.388 0.664 -4.716 4.849 -2.391 7.374 l 16.009 17.338 c 0.864 0.93 1.329 2.259 1.129 3.521 l -2.79 23.449 c -0.399 3.454 3.122 5.979 6.244 4.584 l 21.456 -9.898 c 1.395 -0.531 2.724 -0.531 3.919 0 z"/></clipPath><clipPath id="clip-path-corners-square-color-1-0"><path d="m 744 62 m 69.802 217 h 147.198 v -147.198 c 0 -38.517 -31.284 -69.802 -69.802 -69.802 h -77.397 c -38.517 0 -69.802 31.284 -69.802 69.802 v 77.397 c 0 38.518 31.284 69.802 69.802 69.802 z m -42.677 -147.198 c 0 -23.508 19.168 -42.677 42.677 -42.677 h 77.397 c 23.508 0 42.677 19.168 42.677 42.677 v 120.073 h -120.073 c -23.508 0 -42.677 -19.168 -42.677 -42.677 v -77.397 z"/></clipPath><clipPath id="clip-path-corners-dot-color-1-0"><path d="m 806 124 m 48.36 79.382 l 21.456 9.898 c 3.122 1.461 6.709 -1.129 6.244 -4.584 l -2.79 -23.449 c -0.133 -1.262 0.266 -2.591 1.129 -3.521 l 16.009 -17.338 c 2.325 -2.524 0.996 -6.709 -2.391 -7.374 l -23.184 -4.65 c -1.262 -0.266 -2.391 -1.063 -2.989 -2.192 l -11.559 -20.593 c -1.727 -3.056 -6.045 -3.056 -7.772 0 l -11.559 20.593 c -0.664 1.129 -1.727 1.926 -2.989 2.192 l -23.184 4.65 c -3.388 0.664 -4.716 4.849 -2.391 7.374 l 16.009 17.338 c 0.864 0.93 1.329 2.259 1.129 3.521 l -2.79 23.449 c -0.399 3.454 3.122 5.979 6.244 4.584 l 21.456 -9.898 c 1.395 -0.531 2.724 -0.531 3.919 0 z"/></clipPath><clipPath id="clip-path-corners-square-color-0-1"><path d="m 62 744 m 69.802 217 h 147.198 v -147.198 c 0 -38.517 -31.284 -69.802 -69.802 -69.802 h -77.397 c -38.517 0 -69.802 31.284 -69.802 69.802 v 77.397 c 0 38.518 31.284 69.802 69.802 69.802 z m -42.677 -147.198 c 0 -23.508 19.168 -42.677 42.677 -42.677 h 77.397 c 23.508 0 42.677 19.168 42.677 42.677 v 120.073 h -120.073 c -23.508 0 -42.677 -19.168 -42.677 -42.677 v -77.397 z"/></clipPath><clipPath id="clip-path-corners-dot-color-0-1"><path d="m 124 806 m 48.36 79.382 l 21.456 9.898 c 3.122 1.461 6.709 -1.129 6.244 -4.584 l -2.79 -23.449 c -0.133 -1.262 0.266 -2.591 1.129 -3.521 l 16.009 -17.338 c 2.325 -2.524 0.996 -6.709 -2.391 -7.374 l -23.184 -4.65 c -1.262 -0.266 -2.391 -1.063 -2.989 -2.192 l -11.559 -20.593 c -1.727 -3.056 -6.045 -3.056 -7.772 0 l -11.559 20.593 c -0.664 1.129 -1.727 1.926 -2.989 2.192 l -23.184 4.65 c -3.388 0.664 -4.716 4.849 -2.391 7.374 l 16.009 17.338 c 0.864 0.93 1.329 2.259 1.129 3.521 l -2.79 23.449 c -0.399 3.454 3.122 5.979 6.244 4.584 l 21.456 -9.898 c 1.395 -0.531 2.724 -0.531 3.919 0 z"/></clipPath></defs><rect x="0" y="0" height="1024" width="1024" clip-path="url('#clip-path-background-color')" fill="#ffffff"/><rect x="62" y="62" height="899" width="899" clip-path="url('#clip-path-dot-color')" fill="#4002cf"/><rect x="62" y="62" height="217" width="217" clip-path="url('#clip-path-corners-square-color-0-0')" fill="#4002cf"/><rect x="124" y="124" height="93" width="93" clip-path="url('#clip-path-corners-dot-color-0-0')" fill="#4002cf"/><rect x="744" y="62" height="217" width="217" clip-path="url('#clip-path-corners-square-color-1-0')" fill="#4002cf"/><rect x="806" y="124" height="93" width="93" clip-path="url('#clip-path-corners-dot-color-1-0')" fill="#4002cf"/><rect x="62" y="744" height="217" width="217" clip-path="url('#clip-path-corners-square-color-0-1')" fill="#4002cf"/><rect x="124" y="806" height="93" width="93" clip-path="url('#clip-path-corners-dot-color-0-1')" fill="#4002cf"/><image href="https://img.qrfy.com/img/large/6b793ba6-ad73-4004-a232-1228e0bf3d63.webp" x="372" y="372" width="279px" height="279px"/></svg>